<svg xmlns="http://www.w3.org/2000/svg" xmlns:xlink="http://www.w3.org/1999/xlink" width="500" zoomAndPan="magnify" viewBox="0 0 375 374.999991" height="500" preserveAspectRatio="xMidYMid meet" version="1.0"><defs><clipPath id="e3e0b4a87b"><path d="M 175 37.5 L 355.882812 37.5 L 355.882812 307 L 175 307 Z M 175 37.5 " clip-rule="nonzero"/></clipPath><clipPath id="49c45ea22f"><path d="M 19.132812 78 L 191 78 L 191 307 L 19.132812 307 Z M 19.132812 78 " clip-rule="nonzero"/></clipPath><clipPath id="aa7cd42dc9"><path d="M 175 246 L 214 246 L 214 285 L 175 285 Z M 175 246 " clip-rule="nonzero"/></clipPath><clipPath id="f46a5d4812"><path d="M 175.402344 265.566406 L 194.417969 246.550781 L 213.433594 265.566406 L 194.417969 284.585938 Z M 175.402344 265.566406 " clip-rule="nonzero"/></clipPath><clipPath id="23bd85f2ad"><path d="M 0.199219 0.480469 L 38.601562 0.480469 L 38.601562 38.640625 L 0.199219 38.640625 Z M 0.199219 0.480469 " clip-rule="nonzero"/></clipPath><clipPath id="549218f1da"><path d="M 0.402344 19.566406 L 19.417969 0.550781 L 38.433594 19.566406 L 19.417969 38.585938 Z M 0.402344 19.566406 " clip-rule="nonzero"/></clipPath><clipPath id="cba79a25bc"><rect x="0" width="39" y="0" height="39"/></clipPath><clipPath id="d8b771c7db"><path d="M 125 292 L 143 292 L 143 310 L 125 310 Z M 125 292 " clip-rule="nonzero"/></clipPath><clipPath id="e472ff4d7e"><path d="M 125.308594 301.011719 L 134.03125 292.292969 L 142.75 301.011719 L 134.03125 309.730469 Z M 125.308594 301.011719 " clip-rule="nonzero"/></clipPath><clipPath id="e3997a23e4"><path d="M 0.28125 0.078125 L 17.800781 0.078125 L 17.800781 17.839844 L 0.28125 17.839844 Z M 0.28125 0.078125 " clip-rule="nonzero"/></clipPath><clipPath id="8c7eba4f02"><path d="M 0.308594 9.011719 L 9.03125 0.292969 L 17.75 9.011719 L 9.03125 17.730469 Z M 0.308594 9.011719 " clip-rule="nonzero"/></clipPath><clipPath id="bb26c0c94f"><rect x="0" width="18" y="0" height="18"/></clipPath><clipPath id="b533aac414"><path d="M 220 288 L 246 288 L 246 314 L 220 314 Z M 220 288 " clip-rule="nonzero"/></clipPath><clipPath id="ecf8b1b3f6"><path d="M 220.566406 301.011719 L 232.964844 288.613281 L 245.363281 301.011719 L 232.964844 313.410156 Z M 220.566406 301.011719 " clip-rule="nonzero"/></clipPath><clipPath id="31311f8f62"><path d="M 0.558594 0.480469 L 25.519531 0.480469 L 25.519531 25.441406 L 0.558594 25.441406 Z M 0.558594 0.480469 " clip-rule="nonzero"/></clipPath><clipPath id="80c5eeab22"><path d="M 0.566406 13.011719 L 12.964844 0.613281 L 25.363281 13.011719 L 12.964844 25.410156 Z M 0.566406 13.011719 " clip-rule="nonzero"/></clipPath><clipPath id="b645c2c82f"><rect x="0" width="26" y="0" height="26"/></clipPath></defs><rect x="-37.5" width="450" fill="#ffffff" y="-37.499999" height="449.999989" fill-opacity="1"/><rect x="-37.5" width="450" fill="#000000" y="-37.499999" height="449.999989" fill-opacity="1"/><g clip-path="url(#e3e0b4a87b)"><path fill="#059dde" d="M 355.132812 243.84375 C 354.136719 214.800781 349.824219 184.226562 342.65625 156.164062 C 335.054688 126.414062 318.628906 98.789062 289.789062 85.640625 C 270.253906 76.734375 245.144531 75.054688 226.714844 86.644531 C 221.355469 90.011719 216.421875 92.703125 211.808594 94.847656 L 215.949219 37.53125 L 188.492188 135.542969 L 251.457031 117.339844 L 196.316406 207.117188 L 189.53125 218.167969 L 183.800781 227.492188 L 175.347656 241.257812 L 192.261719 227.527344 C 221.535156 229.117188 241.152344 245.191406 254.023438 262.0625 C 271.445312 284.902344 296.90625 316.644531 329.996094 302.953125 C 352.957031 293.453125 355.875 265.507812 355.132812 243.84375 Z M 289.320312 120.898438 C 296.804688 120.898438 302.867188 126.960938 302.867188 134.445312 C 302.867188 141.925781 296.804688 147.992188 289.320312 147.992188 C 281.839844 147.992188 275.773438 141.925781 275.773438 134.445312 C 275.773438 126.960938 281.839844 120.898438 289.320312 120.898438 Z M 263.808594 173.503906 C 256.324219 173.503906 250.257812 167.441406 250.257812 159.957031 C 250.257812 152.476562 256.324219 146.410156 263.808594 146.410156 C 271.289062 146.410156 277.355469 152.476562 277.355469 159.957031 C 277.355469 167.441406 271.289062 173.503906 263.808594 173.503906 Z M 289.320312 199.019531 C 281.839844 199.019531 275.773438 192.953125 275.773438 185.472656 C 275.773438 177.992188 281.839844 171.925781 289.320312 171.925781 C 296.804688 171.925781 302.867188 177.988281 302.867188 185.472656 C 302.867188 192.953125 296.804688 199.019531 289.320312 199.019531 Z M 314.835938 173.503906 C 307.351562 173.503906 301.289062 167.441406 301.289062 159.957031 C 301.289062 152.476562 307.351562 146.410156 314.835938 146.410156 C 322.316406 146.410156 328.382812 152.476562 328.382812 159.957031 C 328.382812 167.441406 322.316406 173.503906 314.835938 173.503906 Z M 314.835938 173.503906 " fill-opacity="1" fill-rule="nonzero"/></g><g clip-path="url(#49c45ea22f)"><path fill="#ff0169" d="M 190.949219 159.957031 L 125.207031 178.964844 L 182.285156 85.535156 L 166.171875 96.160156 C 160.730469 93.847656 154.835938 90.742188 148.3125 86.644531 C 129.882812 75.054688 104.773438 76.738281 85.238281 85.644531 C 56.394531 98.789062 39.972656 126.414062 32.371094 156.164062 C 25.203125 184.226562 20.890625 214.800781 19.894531 243.84375 C 19.152344 265.507812 22.070312 293.453125 45.027344 302.953125 C 78.117188 316.644531 103.578125 284.902344 121.003906 262.0625 C 128.738281 251.921875 138.980469 242.136719 152.226562 235.542969 L 144.015625 277.460938 Z M 113.234375 165.894531 C 113.234375 168.515625 111.109375 170.640625 108.488281 170.640625 L 93.421875 170.640625 L 93.421875 185.707031 C 93.421875 188.328125 91.296875 190.453125 88.675781 190.453125 L 76.800781 190.453125 C 74.179688 190.453125 72.054688 188.328125 72.054688 185.707031 L 72.054688 170.640625 L 56.988281 170.640625 C 54.367188 170.640625 52.242188 168.515625 52.242188 165.894531 L 52.242188 154.019531 C 52.242188 151.398438 54.367188 149.273438 56.988281 149.273438 L 72.054688 149.273438 L 72.054688 134.207031 C 72.054688 131.585938 74.179688 129.460938 76.800781 129.460938 L 88.675781 129.460938 C 91.296875 129.460938 93.421875 131.585938 93.421875 134.207031 L 93.421875 149.273438 L 108.488281 149.273438 C 111.109375 149.273438 113.234375 151.398438 113.234375 154.019531 Z M 113.234375 165.894531 " fill-opacity="1" fill-rule="nonzero"/></g><g clip-path="url(#aa7cd42dc9)"><g clip-path="url(#f46a5d4812)"><g transform="matrix(1, 0, 0, 1, 175, 246)"><g clip-path="url(#cba79a25bc)"><g clip-path="url(#23bd85f2ad)"><g clip-path="url(#549218f1da)"><path fill="#ff0169" d="M 0.402344 19.566406 L 19.417969 0.550781 L 38.433594 19.566406 L 19.417969 38.585938 Z M 0.402344 19.566406 " fill-opacity="1" fill-rule="nonzero"/></g></g></g></g></g></g><g clip-path="url(#d8b771c7db)"><g clip-path="url(#e472ff4d7e)"><g transform="matrix(1, 0, 0, 1, 125, 292)"><g clip-path="url(#bb26c0c94f)"><g clip-path="url(#e3997a23e4)"><g clip-path="url(#8c7eba4f02)"><path fill="#ffffff" d="M 0.308594 9.011719 L 9.03125 0.292969 L 17.75 9.011719 L 9.03125 17.730469 Z M 0.308594 9.011719 " fill-opacity="1" fill-rule="nonzero"/></g></g></g></g></g></g><g clip-path="url(#b533aac414)"><g clip-path="url(#ecf8b1b3f6)"><g transform="matrix(1, 0, 0, 1, 220, 288)"><g clip-path="url(#b645c2c82f)"><g clip-path="url(#31311f8f62)"><g clip-path="url(#80c5eeab22)"><path fill="#ffffff" d="M 0.566406 13.011719 L 12.964844 0.613281 L 25.363281 13.011719 L 12.964844 25.410156 Z M 0.566406 13.011719 " fill-opacity="1" fill-rule="nonzero"/></g></g></g></g></g></g></svg>